<svg xmlns="http://www.w3.org/2000/svg" width="16" height="12" viewBox="0 0 16 12" fill="none">
  <path d="M8 10C8.26522 10 8.51957 9.89464 8.70711 9.70711C8.89464 9.51957 9 9.26522 9 9C9 8.73478 8.89464 8.48043 8.70711 8.29289C8.51957 8.10536 8.26522 8 8 8C7.73478 8 7.48043 8.10536 7.29289 8.29289C7.10536 8.48043 7 8.73478 7 9C7 9.26522 7.10536 9.51957 7.29289 9.70711C7.48043 9.89464 7.73478 10 8 10Z" fill="#F5EEDE"/>
  <path d="M5.5 7.5C5.82588 7.1674 6.21485 6.90317 6.64413 6.72279C7.0734 6.5424 7.53436 6.44949 8 6.44949C8.46564 6.44949 8.92659 6.5424 9.35587 6.72279C9.78515 6.90317 10.1741 7.1674 10.5 7.5" stroke="#F5EEDE" stroke-width="1.2" stroke-linecap="round"/>
  <path opacity="0.5" d="M3 5C3.60997 4.26569 4.37418 3.67474 5.23835 3.26916C6.10251 2.86358 7.04539 2.65331 8 2.65331C8.95461 2.65331 9.89749 2.86358 10.7617 3.26916C11.6258 3.67474 12.39 4.26569 13 5" stroke="#F5EEDE" stroke-width="1.2" stroke-linecap="round"/>
</svg>
