<svg width="30" height="30" viewBox="0 0 30 30" fill="none" xmlns="http://www.w3.org/2000/svg">
<g clip-path="url(#clip0_276_322)">
<path d="M15 30C11.425 30 8.2625 28.875 5.5125 26.625C2.7625 24.375 1.025 21.5 0.3 18H3.375C4.075 20.65 5.5 22.8125 7.65 24.4875C9.8 26.1625 12.25 27 15 27C17.15 27 19.15 26.4688 21 25.4063C22.85 24.3438 24.3 22.875 25.35 21H21V18H30V27H27V24C25.575 25.9 23.8125 27.375 21.7125 28.425C19.6125 29.475 17.375 30 15 30ZM11.8125 18.1875C10.9375 17.3125 10.5 16.25 10.5 15C10.5 13.75 10.9375 12.6875 11.8125 11.8125C12.6875 10.9375 13.75 10.5 15 10.5C16.25 10.5 17.3125 10.9375 18.1875 11.8125C19.0625 12.6875 19.5 13.75 19.5 15C19.5 16.25 19.0625 17.3125 18.1875 18.1875C17.3125 19.0625 16.25 19.5 15 19.5C13.75 19.5 12.6875 19.0625 11.8125 18.1875ZM0 12V3H3V6C4.425 4.1 6.1875 2.625 8.2875 1.575C10.3875 0.525 12.625 0 15 0C18.575 0 21.7375 1.125 24.4875 3.375C27.2375 5.625 28.975 8.5 29.7 12H26.625C25.925 9.35 24.5 7.1875 22.35 5.5125C20.2 3.8375 17.75 3 15 3C12.85 3 10.85 3.53125 9 4.59375C7.15 5.65625 5.7 7.125 4.65 9H9V12H0Z" fill="#E3E3E3"/>
</g>
<defs>
<clipPath id="clip0_276_322">
<rect width="30" height="30" fill="white"/>
</clipPath>
</defs>
</svg>
