<svg xmlns="http://www.w3.org/2000/svg" width="17" height="12" viewBox="0 0 17 12" fill="none">
  <g clip-path="url(#clip0_563_57)">
    <path d="M2 8H1C0.447715 8 0 8.44772 0 9V11C0 11.5523 0.447715 12 1 12H2C2.55228 12 3 11.5523 3 11V9C3 8.44772 2.55228 8 2 8Z" fill="#F5EEDE"/>
    <path d="M6.5 5H5.5C4.94772 5 4.5 5.44772 4.5 6V11C4.5 11.5523 4.94772 12 5.5 12H6.5C7.05228 12 7.5 11.5523 7.5 11V6C7.5 5.44772 7.05228 5 6.5 5Z" fill="#F5EEDE"/>
    <path d="M11 2H10C9.44772 2 9 2.44772 9 3V11C9 11.5523 9.44772 12 10 12H11C11.5523 12 12 11.5523 12 11V3C12 2.44772 11.5523 2 11 2Z" fill="#F5EEDE"/>
    <path opacity="0.3" d="M15.5 0H14.5C13.9477 0 13.5 0.447715 13.5 1V11C13.5 11.5523 13.9477 12 14.5 12H15.5C16.0523 12 16.5 11.5523 16.5 11V1C16.5 0.447715 16.0523 0 15.5 0Z" fill="#F5EEDE"/>
  </g>
  <defs>
    <clipPath id="clip0_563_57">
      <rect width="17" height="12" fill="white"/>
    </clipPath>
  </defs>
</svg>
