<svg xmlns="http://www.w3.org/2000/svg" width="25" height="12" viewBox="0 0 25 12" fill="none">
  <g clip-path="url(#clip0_563_59)">
    <path d="M18.5 1H2.5C1.11929 1 0 2.11929 0 3.5V8.5C0 9.88071 1.11929 11 2.5 11H18.5C19.8807 11 21 9.88071 21 8.5V3.5C21 2.11929 19.8807 1 18.5 1Z" stroke="#F5EEDE"/>
    <path d="M16 2.5H3C2.17157 2.5 1.5 3.17157 1.5 4V8C1.5 8.82843 2.17157 9.5 3 9.5H16C16.8284 9.5 17.5 8.82843 17.5 8V4C17.5 3.17157 16.8284 2.5 16 2.5Z" fill="#F5EEDE"/>
    <path opacity="0.4" d="M22.5 4V8C23.0304 8 23.5391 7.78929 23.9142 7.41421C24.2893 7.03914 24.5 6.53043 24.5 6C24.5 5.46957 24.2893 4.96086 23.9142 4.58579C23.5391 4.21071 23.0304 4 22.5 4Z" fill="#F5EEDE"/>
  </g>
  <defs>
    <clipPath id="clip0_563_59">
      <rect width="25" height="12" fill="white"/>
    </clipPath>
  </defs>
</svg>
